{
  "asset": {
    "version": "2.0",
    "generator": "THREE.GLTFExporter"
  },
  "scenes": [
    {
      "name": "Scene",
      "nodes": [
        8
      ]
    }
  ],
  "scene": 0,
  "nodes": [
    {
      "name": "Font003_Bla_Blac002",
      "extras": {
        "name": "Font.003_Bla_Blac.002"
      },
      "mesh": 1
    },
    {
      "name": "Font004_Bla_Blac002",
      "extras": {
        "name": "Font.004_Bla_Blac.002"
      },
      "mesh": 2
    },
    {
      "name": "Plane002_Red",
      "extras": {
        "name": "Plane.002_Red"
      },
      "mesh": 3
    },
    {
      "name": "Plane003_Red",
      "extras": {
        "name": "Plane.003_Red"
      },
      "mesh": 4
    },
    {
      "name": "Plane004_Red",
      "extras": {
        "name": "Plane.004_Red"
      },
      "mesh": 5
    },
    {
      "name": "Plane005_Red",
      "extras": {
        "name": "Plane.005_Red"
      },
      "mesh": 6
    },
    {
      "matrix": [
        1,
        0,
        0,
        0,
        0,
        1,
        0,
        0,
        0,
        0,
        1,
        0,
        1.2511638131541336,
        -0.24585740725475347,
        -0.08726099086370764,
        1
      ],
      "name": "2ofHearts",
      "extras": {
        "name": "2ofHearts"
      },
      "mesh": 0,
      "children": [
        0,
        1,
        2,
        3,
        4,
        5
      ]
    },
    {
      "name": "2hglb",
      "extras": {
        "name": "2h.glb"
      },
      "children": [
        6
      ]
    },
    {
      "matrix": [
        0.18150214879013982,
        0,
        0.17192140641747305,
        0,
        0,
        0.25,
        0,
        0,
        -0.17192140641747305,
        0,
        0.18150214879013982,
        0,
        1.7257951269120029,
        1.5039156776787426,
        -0.8002722586972699,
        1
      ],
      "name": "2h.gltf",
      "children": [
        7
      ]
    }
  ],
  "bufferViews": [
    {
      "buffer": 0,
      "byteOffset": 0,
      "byteLength": 3468,
      "target": 34962,
      "byteStride": 12
    },
    {
      "buffer": 0,
      "byteOffset": 3468,
      "byteLength": 3468,
      "target": 34962,
      "byteStride": 12
    },
    {
      "buffer": 0,
      "byteOffset": 6936,
      "byteLength": 3072,
      "target": 34963
    },
    {
      "buffer": 0,
      "byteOffset": 10008,
      "byteLength": 1068,
      "target": 34962,
      "byteStride": 12
    },
    {
      "buffer": 0,
      "byteOffset": 11076,
      "byteLength": 1068,
      "target": 34962,
      "byteStride": 12
    },
    {
      "buffer": 0,
      "byteOffset": 12144,
      "byteLength": 524,
      "target": 34963
    },
    {
      "buffer": 0,
      "byteOffset": 12668,
      "byteLength": 1068,
      "target": 34962,
      "byteStride": 12
    },
    {
      "buffer": 0,
      "byteOffset": 13736,
      "byteLength": 1068,
      "target": 34962,
      "byteStride": 12
    },
    {
      "buffer": 0,
      "byteOffset": 14804,
      "byteLength": 6192,
      "target": 34962,
      "byteStride": 12
    },
    {
      "buffer": 0,
      "byteOffset": 20996,
      "byteLength": 6192,
      "target": 34962,
      "byteStride": 12
    },
    {
      "buffer": 0,
      "byteOffset": 27188,
      "byteLength": 5376,
      "target": 34963
    },
    {
      "buffer": 0,
      "byteOffset": 32564,
      "byteLength": 6192,
      "target": 34962,
      "byteStride": 12
    },
    {
      "buffer": 0,
      "byteOffset": 38756,
      "byteLength": 6192,
      "target": 34962,
      "byteStride": 12
    },
    {
      "buffer": 0,
      "byteOffset": 44948,
      "byteLength": 6192,
      "target": 34962,
      "byteStride": 12
    },
    {
      "buffer": 0,
      "byteOffset": 51140,
      "byteLength": 6192,
      "target": 34962,
      "byteStride": 12
    },
    {
      "buffer": 0,
      "byteOffset": 57332,
      "byteLength": 6192,
      "target": 34962,
      "byteStride": 12
    },
    {
      "buffer": 0,
      "byteOffset": 63524,
      "byteLength": 6192,
      "target": 34962,
      "byteStride": 12
    }
  ],
  "buffers": [
    {
      "byteLength": 69716,
      "uri": "data:application/octet-stream;base64,"
    }
  ],
  "accessors": [
    {
      "bufferView": 0,
      "componentType": 5126,
      "count": 289,
      "max": [
        0.800000011920929,
        0,
        1
      ],
      "min": [
        -0.800000011920929,
        0,
        -1.0000001192092896
      ],
      "type": "VEC3"
    },
    {
      "bufferView": 1,
      "componentType": 5126,
      "count": 289,
      "max": [
        0,
        1,
        0
      ],
      "min": [
        0,
        1,
        0
      ],
      "type": "VEC3"
    },
    {
      "bufferView": 2,
      "componentType": 5123,
      "count": 1536,
      "max": [
        288
      ],
      "min": [
        0
      ],
      "type": "SCALAR"
    },
    {
      "bufferView": 3,
      "componentType": 5126,
      "count": 89,
      "max": [
        -0.500726580619812,
        0.004560289904475212,
        -0.6609377861022949
      ],
      "min": [
        -0.6735265851020813,
        0.004560289904475212,
        -0.9373378157615662
      ],
      "type": "VEC3"
    },
    {
      "bufferView": 4,
      "componentType": 5126,
      "count": 89,
      "max": [
        0,
        1,
        0
      ],
      "min": [
        0,
        1,
        0
      ],
      "type": "VEC3"
    },
    {
      "bufferView": 5,
      "componentType": 5123,
      "count": 261,
      "max": [
        88
      ],
      "min": [
        0
      ],
      "type": "SCALAR"
    },
    {
      "bufferView": 6,
      "componentType": 5126,
      "count": 89,
      "max": [
        0.6992917656898499,
        0.003340564202517271,
        0.924351155757904
      ],
      "min": [
        0.5264917612075806,
        0.003340564202517271,
        0.6479511260986328
      ],
      "type": "VEC3"
    },
    {
      "bufferView": 7,
      "componentType": 5126,
      "count": 89,
      "max": [
        0,
        1,
        0
      ],
      "min": [
        0,
        1,
        0
      ],
      "type": "VEC3"
    },
    {
      "bufferView": 8,
      "componentType": 5126,
      "count": 516,
      "max": [
        -0.43858802318573,
        0.0031575800385326147,
        -0.25387969613075256
      ],
      "min": [
        -0.7215629816055298,
        0.0031575800385326147,
        -0.5712394118309021
      ],
      "type": "VEC3"
    },
    {
      "bufferView": 9,
      "componentType": 5126,
      "count": 516,
      "max": [
        0,
        1,
        0
      ],
      "min": [
        0,
        -1,
        0
      ],
      "type": "VEC3"
    },
    {
      "bufferView": 10,
      "componentType": 5123,
      "count": 2688,
      "max": [
        515
      ],
      "min": [
        0
      ],
      "type": "SCALAR"
    },
    {
      "bufferView": 11,
      "componentType": 5126,
      "count": 516,
      "max": [
        0.7553068399429321,
        0.0031575800385326147,
        0.5771365761756897
      ],
      "min": [
        0.47233185172080994,
        0.0031575800385326147,
        0.25977686047554016
      ],
      "type": "VEC3"
    },
    {
      "bufferView": 12,
      "componentType": 5126,
      "count": 516,
      "max": [
        0,
        1,
        0
      ],
      "min": [
        0,
        -1,
        0
      ],
      "type": "VEC3"
    },
    {
      "bufferView": 13,
      "componentType": 5126,
      "count": 516,
      "max": [
        0.13703741133213043,
        0.0031575800385326147,
        -0.4500178396701813
      ],
      "min": [
        -0.14593757688999176,
        0.0031575800385326147,
        -0.7673775553703308
      ],
      "type": "VEC3"
    },
    {
      "bufferView": 14,
      "componentType": 5126,
      "count": 516,
      "max": [
        0,
        1,
        0
      ],
      "min": [
        0,
        -1,
        0
      ],
      "type": "VEC3"
    },
    {
      "bufferView": 15,
      "componentType": 5126,
      "count": 516,
      "max": [
        0.13704127073287964,
        0.0031575800385326147,
        0.7988580465316772
      ],
      "min": [
        -0.14593371748924255,
        0.0031575800385326147,
        0.4814983308315277
      ],
      "type": "VEC3"
    },
    {
      "bufferView": 16,
      "componentType": 5126,
      "count": 516,
      "max": [
        0,
        1,
        0
      ],
      "min": [
        0,
        -1,
        0
      ],
      "type": "VEC3"
    }
  ],
  "materials": [
    {
      "pbrMetallicRoughness": {
        "metallicFactor": 0,
        "roughnessFactor": 0.9
      },
      "extensions": {
        "KHR_materials_unlit": {}
      }
    },
    {
      "pbrMetallicRoughness": {
        "baseColorFactor": [
          1,
          0,
          0,
          1
        ],
        "metallicFactor": 0,
        "roughnessFactor": 0.5
      },
      "doubleSided": true,
      "name": "Black.142"
    },
    {
      "pbrMetallicRoughness": {
        "baseColorFactor": [
          1,
          0,
          0,
          1
        ],
        "metallicFactor": 0,
        "roughnessFactor": 0.5
      },
      "doubleSided": true,
      "name": "Red"
    }
  ],
  "meshes": [
    {
      "primitives": [
        {
          "mode": 4,
          "attributes": {
            "POSITION": 0,
            "NORMAL": 1
          },
          "indices": 2,
          "material": 0
        }
      ]
    },
    {
      "primitives": [
        {
          "mode": 4,
          "attributes": {
            "POSITION": 3,
            "NORMAL": 4
          },
          "indices": 5,
          "material": 1
        }
      ]
    },
    {
      "primitives": [
        {
          "mode": 4,
          "attributes": {
            "POSITION": 6,
            "NORMAL": 7
          },
          "indices": 5,
          "material": 1
        }
      ]
    },
    {
      "primitives": [
        {
          "mode": 4,
          "attributes": {
            "POSITION": 8,
            "NORMAL": 9
          },
          "indices": 10,
          "material": 2
        }
      ]
    },
    {
      "primitives": [
        {
          "mode": 4,
          "attributes": {
            "POSITION": 11,
            "NORMAL": 12
          },
          "indices": 10,
          "material": 2
        }
      ]
    },
    {
      "primitives": [
        {
          "mode": 4,
          "attributes": {
            "POSITION": 13,
            "NORMAL": 14
          },
          "indices": 10,
          "material": 2
        }
      ]
    },
    {
      "primitives": [
        {
          "mode": 4,
          "attributes": {
            "POSITION": 15,
            "NORMAL": 16
          },
          "indices": 10,
          "material": 2
        }
      ]
    }
  ],
  "extensionsUsed": [
    "KHR_materials_unlit"
  ]
}